<svg width="24" height="24" viewBox="0 0 24 24" fill="none" xmlns="http://www.w3.org/2000/svg">
<g clip-path="url(#clip0_1017_2169)">
<path d="M10.5 7.00001C10.3684 6.99925 10.2379 7.02448 10.1161 7.07424C9.99426 7.12401 9.88344 7.19733 9.79 7.29001C9.69627 7.38298 9.62188 7.49358 9.57111 7.61544C9.52034 7.7373 9.4942 7.868 9.4942 8.00001C9.4942 8.13202 9.52034 8.26273 9.57111 8.38459C9.62188 8.50645 9.69627 8.61705 9.79 8.71001L13.1 12L9.92 15.31C9.73375 15.4974 9.62921 15.7508 9.62921 16.015C9.62921 16.2792 9.73375 16.5326 9.92 16.72C10.013 16.8137 10.1236 16.8881 10.2454 16.9389C10.3673 16.9897 10.498 17.0158 10.63 17.0158C10.762 17.0158 10.8927 16.9897 11.0146 16.9389C11.1364 16.8881 11.247 16.8137 11.34 16.72L15.2 12.72C15.3832 12.5331 15.4859 12.2818 15.4859 12.02C15.4859 11.7583 15.3832 11.5069 15.2 11.32L11.2 7.32001C11.1102 7.22308 11.0022 7.14489 10.882 7.08997C10.7619 7.03504 10.632 7.00447 10.5 7.00001Z" fill="#29AFDA"/>
</g>
<defs>
<clipPath id="clip0_1017_2169">
<rect width="24" height="24" fill="white" transform="matrix(1 -8.74228e-08 -8.74228e-08 -1 0 24)"/>
</clipPath>
</defs>
</svg>
