<svg width="24" height="24" viewBox="0 0 24 24" fill="none" xmlns="http://www.w3.org/2000/svg">
<g clip-path="url(#clip0_1116_2364)">
<path d="M13.5 17C13.6316 17.0007 13.7621 16.9755 13.8839 16.9258C14.0057 16.876 14.1166 16.8027 14.21 16.71C14.3037 16.617 14.3781 16.5064 14.4289 16.3846C14.4797 16.2627 14.5058 16.132 14.5058 16C14.5058 15.868 14.4797 15.7373 14.4289 15.6154C14.3781 15.4936 14.3037 15.3829 14.21 15.29L10.9 12L14.08 8.68999C14.2663 8.50263 14.3708 8.24918 14.3708 7.98499C14.3708 7.7208 14.2663 7.46735 14.08 7.27999C13.987 7.18626 13.8764 7.11187 13.7546 7.0611C13.6327 7.01033 13.502 6.98419 13.37 6.98419C13.238 6.98419 13.1073 7.01033 12.9854 7.0611C12.8636 7.11187 12.753 7.18626 12.66 7.27999L8.8 11.28C8.61677 11.4669 8.51414 11.7182 8.51414 11.98C8.51414 12.2417 8.61677 12.4931 8.8 12.68L12.8 16.68C12.8898 16.7769 12.9978 16.8551 13.118 16.91C13.2381 16.965 13.368 16.9955 13.5 17V17Z" fill="#29AFDA"/>
</g>
<defs>
<clipPath id="clip0_1116_2364">
<rect width="24" height="24" fill="white" transform="matrix(-1 8.74228e-08 8.74228e-08 1 24 0)"/>
</clipPath>
</defs>
</svg>
