<svg width="16" height="16" viewBox="0 0 16 16" fill="none" xmlns="http://www.w3.org/2000/svg">
<g clip-path="url(#clip0_1066_2404)">
<path d="M9.46087 7.99911L13.9158 3.55388C14.1109 3.35877 14.2205 3.09413 14.2205 2.81819C14.2205 2.54226 14.1109 2.27762 13.9158 2.0825C13.7207 1.88739 13.4561 1.77777 13.1802 1.77777C12.9043 1.77777 12.6397 1.88739 12.4446 2.0825L8.00005 6.53809L3.55546 2.0825C3.36037 1.88739 3.09577 1.77777 2.81988 1.77777C2.54398 1.77777 2.27938 1.88739 2.08429 2.0825C1.8892 2.27762 1.7796 2.54226 1.7796 2.81819C1.7796 3.09413 1.8892 3.35877 2.08429 3.55388L6.53924 7.99911L2.08429 12.4443C1.98718 12.5407 1.91011 12.6553 1.85751 12.7815C1.80491 12.9078 1.77783 13.0432 1.77783 13.18C1.77783 13.3168 1.80491 13.4522 1.85751 13.5785C1.91011 13.7048 1.98718 13.8194 2.08429 13.9157C2.1806 14.0128 2.29519 14.0899 2.42144 14.1425C2.54769 14.1951 2.68311 14.2222 2.81988 14.2222C2.95664 14.2222 3.09206 14.1951 3.21831 14.1425C3.34456 14.0899 3.45915 14.0128 3.55546 13.9157L8.00005 9.46013L12.4446 13.9157C12.541 14.0128 12.6555 14.0899 12.7818 14.1425C12.908 14.1951 13.0435 14.2222 13.1802 14.2222C13.317 14.2222 13.4524 14.1951 13.5787 14.1425C13.7049 14.0899 13.8195 14.0128 13.9158 13.9157C14.0129 13.8194 14.09 13.7048 14.1426 13.5785C14.1952 13.4522 14.2223 13.3168 14.2223 13.18C14.2223 13.0432 14.1952 12.9078 14.1426 12.7815C14.09 12.6553 14.0129 12.5407 13.9158 12.4443L9.46087 7.99911Z" fill="#303030"/>
</g>
<defs>
<clipPath id="clip0_1066_2404">
<rect width="16" height="16" fill="white"/>
</clipPath>
</defs>
</svg>
