<svg width="42" height="42" viewBox="0 0 42 42" fill="none" xmlns="http://www.w3.org/2000/svg">
<g clip-path="url(#clip0_1001_2677)">
<path d="M33.908 21.728L15.3598 34.0935C15.228 34.1812 15.0749 34.2315 14.9168 34.239C14.7587 34.2466 14.6015 34.2111 14.462 34.1364C14.3225 34.0617 14.2058 33.9506 14.1244 33.8148C14.0431 33.6791 14.0001 33.5238 14 33.3655V8.6345C14.0001 8.47622 14.0431 8.32094 14.1244 8.18517C14.2058 8.04941 14.3225 7.93826 14.462 7.86355C14.6015 7.78885 14.7587 7.75339 14.9168 7.76095C15.0749 7.76851 15.228 7.81881 15.3598 7.9065L33.908 20.272C34.0278 20.3519 34.1261 20.4602 34.1941 20.5872C34.262 20.7142 34.2976 20.856 34.2976 21C34.2976 21.144 34.262 21.2858 34.1941 21.4128C34.1261 21.5398 34.0278 21.6481 33.908 21.728Z" fill="white"/>
</g>
<defs>
<clipPath id="clip0_1001_2677">
<rect width="42" height="42" fill="white"/>
</clipPath>
</defs>
</svg>
